<?xml version="1.0" encoding="UTF-8" standalone="no" ?>
<!DOCTYPE svg PUBLIC "-//W3C//DTD SVG 1.1//EN" "http://www.w3.org/Graphics/SVG/1.1/DTD/svg11.dtd">
<svg xmlns="http://www.w3.org/2000/svg" xmlns:xlink="http://www.w3.org/1999/xlink" version="1.1" width="1080" height="1080" viewBox="0 0 1080 1080" xml:space="preserve">
<desc>Created with Fabric.js 4.2.0</desc>
<defs>
</defs>
<rect x="0" y="0" width="100%" height="100%" fill="transparent"></rect>
<g transform="matrix(1 0 0 1 540 540)" id="fe27d14f-3582-42bf-be9a-c7aa7c4d5bd6"  >
<rect style="stroke: none; stroke-width: 1; stroke-dasharray: none; stroke-linecap: butt; stroke-dashoffset: 0; stroke-linejoin: miter; stroke-miterlimit: 4; fill: rgb(255,255,255); fill-rule: nonzero; opacity: 1;" vector-effect="non-scaling-stroke"  x="-540" y="-540" rx="0" ry="0" width="1080" height="1080" />
</g>
<g transform="matrix(1 0 0 1 540 540)" id="ded58438-13f2-484f-b5fb-b2e7aeea7ad0"  >
</g>
<g transform="matrix(0.87 0 0 0.87 540 540)"  >
<g style="" vector-effect="non-scaling-stroke"   >
		<g transform="matrix(1 0 0 1 -120 -112)"  >
<path style="stroke: none; stroke-width: 1; stroke-dasharray: none; stroke-linecap: butt; stroke-dashoffset: 0; stroke-linejoin: miter; stroke-miterlimit: 4; fill: rgb(69,104,220); fill-rule: nonzero; opacity: 1;" vector-effect="non-scaling-stroke"  transform=" translate(-128, -136)" d="M 160 192 L 160 112 C 160 94.352 145.648 80 128 80 C 110.352 80 96 94.352 96 112 L 96 192 L 112 192 L 112 160 L 144 160 L 144 192 L 160 192 Z M 112 144 L 112 112 C 112 103.176 119.176 96 128 96 C 136.824 96 144 103.176 144 112 L 144 144 L 112 144 Z" stroke-linecap="round" />
</g>
		<g transform="matrix(1 0 0 1 -40 -112)"  >
<path style="stroke: none; stroke-width: 1; stroke-dasharray: none; stroke-linecap: butt; stroke-dashoffset: 0; stroke-linejoin: miter; stroke-miterlimit: 4; fill: rgb(69,104,220); fill-rule: nonzero; opacity: 1;" vector-effect="non-scaling-stroke"  transform=" translate(-208, -136)" d="M 208 144 C 225.648 144 240 129.648 240 112 C 240 94.352 225.648 80 208 80 L 176 80 L 176 192 L 192 192 L 192 144 L 208 144 Z M 192 96 L 208 96 C 216.824 96 224 103.176 224 112 C 224 120.824 216.824 128 208 128 L 192 128 L 192 96 Z" stroke-linecap="round" />
</g>
		<g transform="matrix(1 0 0 1 24 -112)"  >
<path style="stroke: none; stroke-width: 1; stroke-dasharray: none; stroke-linecap: butt; stroke-dashoffset: 0; stroke-linejoin: miter; stroke-miterlimit: 4; fill: rgb(69,104,220); fill-rule: nonzero; opacity: 1;" vector-effect="non-scaling-stroke"  transform=" translate(-272, -136)" d="M 248 176 L 248 192 L 296 192 L 296 176 L 280 176 L 280 96 L 296 96 L 296 80 L 248 80 L 248 96 L 264 96 L 264 176 L 248 176 Z" stroke-linecap="round" />
</g>
		<g transform="matrix(1 0 0 1 0 -24)"  >
<path style="stroke: none; stroke-width: 1; stroke-dasharray: none; stroke-linecap: butt; stroke-dashoffset: 0; stroke-linejoin: miter; stroke-miterlimit: 4; fill: rgb(69,104,220); fill-rule: nonzero; opacity: 1;" vector-effect="non-scaling-stroke"  transform=" translate(-248, -224)" d="M 496 334.336 L 496 273.664 L 474.92 268.704 C 472.256 259.424 468.56 250.496 463.872 242.048 L 475.272 223.632 L 432.368 180.728 L 413.952 192.128 C 409.168 189.472 404.168 187.256 399.088 185.232 C 399.672 182.24 400 179.16 400 176 C 400 152.248 382.648 132.528 359.96 128.72 C 359.96 128.472 360 128.24 360 128 C 360 83.888 324.112 48 280 48 C 269.92 48 260.144 49.856 250.84 53.528 C 232.608 20.768 197.768 0 160 0 C 105.184 0 60.248 42.656 56.384 96.496 C 24.672 100.28 0 127.296 0 160 C 0 195.288 28.712 224 64 224 L 80 224 L 80 315.056 L 48 331.056 L 48 384 L 64 384 L 64 340.944 L 96 324.944 L 96 208 L 64 208 C 37.528 208 16 186.472 16 160 C 16 133.528 37.528 112 64 112 C 68.68 112 73.296 112.664 77.712 113.992 L 82.28 98.656 C 79.04 97.696 75.728 97.048 72.368 96.608 C 76.152 51.536 113.976 16 160 16 C 194.2 16 225.56 36.144 239.904 67.312 L 243.4 74.904 L 250.832 71.088 C 259.984 66.384 269.8 64 280 64 C 315.288 64 344 92.712 344 128 C 344 128.232 343.968 128.464 343.96 128.696 C 336.568 129.936 329.584 132.872 323.448 137.408 L 332.968 150.264 C 338.512 146.168 345.088 144 352 144 C 369.648 144 384 158.352 384 176 C 384 193.648 369.648 208 352 208 L 144 208 L 144 324.944 L 176 340.944 L 176 384 L 192 384 L 192 331.056 L 160 315.056 L 160 224 L 234.072 224 L 240.616 241.176 C 235.696 249.872 231.832 259.096 229.08 268.696 L 208 273.664 L 208 334.336 L 229.08 339.296 C 231.744 348.576 235.44 357.504 240.128 365.952 L 228.728 384.368 L 271.632 427.272 L 290.048 415.872 C 298.496 420.56 307.424 424.264 316.704 426.92 L 321.664 448 L 382.336 448 L 387.296 426.928 C 396.576 424.264 405.504 420.568 413.952 415.88 L 432.368 427.28 L 475.272 384.376 L 463.872 365.96 C 468.56 357.512 472.264 348.584 474.92 339.304 L 496 334.336 Z M 461.824 325.944 L 460.656 330.704 C 457.96 341.712 453.6 352.216 447.704 361.936 L 445.16 366.128 L 454.992 382.016 L 430.008 407 L 414.12 397.168 L 409.928 399.712 C 400.216 405.608 389.704 409.96 378.696 412.664 L 373.936 413.832 L 369.664 432 L 334.336 432 L 330.056 413.824 L 325.296 412.656 C 314.288 409.96 303.784 405.6 294.064 399.704 L 289.872 397.16 L 273.984 406.992 L 249 382.008 L 258.832 366.12 L 256.288 361.928 C 250.4 352.224 246.04 341.712 243.336 330.696 L 242.168 325.936 L 224 321.664 L 224 286.336 L 242.176 282.056 L 243.344 277.296 C 246.048 266.28 250.4 255.768 256.296 246.064 L 258.32 242.728 L 251.192 224 L 299.048 224 C 273.136 241.208 256 270.632 256 304 C 256 356.936 299.064 400 352 400 C 404.936 400 448 356.936 448 304 C 448 261.728 420.504 225.824 382.488 213.048 C 386.832 209.464 390.496 205.112 393.368 200.232 C 399.08 202.512 404.672 205.104 409.936 208.296 L 414.128 210.84 L 430.024 201.008 L 455.008 225.992 L 445.176 241.88 L 447.72 246.072 C 453.608 255.776 457.968 266.288 460.672 277.304 L 461.84 282.064 L 480 286.336 L 480 321.664 L 461.824 325.944 Z M 352 224 C 396.112 224 432 259.888 432 304 C 432 348.112 396.112 384 352 384 C 307.888 384 272 348.112 272 304 C 272 259.888 307.888 224 352 224 Z" stroke-linecap="round" />
</g>
		<g transform="matrix(1 0 0 1 104 56)"  >
<path style="stroke: none; stroke-width: 1; stroke-dasharray: none; stroke-linecap: butt; stroke-dashoffset: 0; stroke-linejoin: miter; stroke-miterlimit: 4; fill: rgb(69,104,220); fill-rule: nonzero; opacity: 1;" vector-effect="non-scaling-stroke"  transform=" translate(-352, -304)" d="M 352 368 C 387.288 368 416 339.288 416 304 C 416 268.712 387.288 240 352 240 C 316.712 240 288 268.712 288 304 C 288 339.288 316.712 368 352 368 Z M 352 256 C 378.472 256 400 277.528 400 304 C 400 330.472 378.472 352 352 352 C 325.528 352 304 330.472 304 304 C 304 277.528 325.528 256 352 256 Z" stroke-linecap="round" />
</g>
		<g transform="matrix(1 0 0 1 -192 160)"  >
<path style="stroke: none; stroke-width: 1; stroke-dasharray: none; stroke-linecap: butt; stroke-dashoffset: 0; stroke-linejoin: miter; stroke-miterlimit: 4; fill: rgb(69,104,220); fill-rule: nonzero; opacity: 1;" vector-effect="non-scaling-stroke"  transform=" translate(-56, -408)" d="M 48 400 L 64 400 L 64 416 L 48 416 L 48 400 Z" stroke-linecap="round" />
</g>
		<g transform="matrix(1 0 0 1 -64 160)"  >
<path style="stroke: none; stroke-width: 1; stroke-dasharray: none; stroke-linecap: butt; stroke-dashoffset: 0; stroke-linejoin: miter; stroke-miterlimit: 4; fill: rgb(69,104,220); fill-rule: nonzero; opacity: 1;" vector-effect="non-scaling-stroke"  transform=" translate(-184, -408)" d="M 176 400 L 192 400 L 192 416 L 176 416 L 176 400 Z" stroke-linecap="round" />
</g>
		<g transform="matrix(1 0 0 1 -192 216)"  >
<path style="stroke: none; stroke-width: 1; stroke-dasharray: none; stroke-linecap: butt; stroke-dashoffset: 0; stroke-linejoin: miter; stroke-miterlimit: 4; fill: rgb(69,104,220); fill-rule: nonzero; opacity: 1;" vector-effect="non-scaling-stroke"  transform=" translate(-56, -464)" d="M 64 449.472 L 64 432 L 48 432 L 48 449.472 C 38.712 452.784 32 461.584 32 472 C 32 485.232 42.768 496 56 496 C 69.232 496 80 485.232 80 472 C 80 461.584 73.288 452.784 64 449.472 Z M 56 480 C 51.592 480 48 476.408 48 472 C 48 467.592 51.592 464 56 464 C 60.408 464 64 467.592 64 472 C 64 476.408 60.408 480 56 480 Z" stroke-linecap="round" />
</g>
		<g transform="matrix(1 0 0 1 -64 216)"  >
<path style="stroke: none; stroke-width: 1; stroke-dasharray: none; stroke-linecap: butt; stroke-dashoffset: 0; stroke-linejoin: miter; stroke-miterlimit: 4; fill: rgb(69,104,220); fill-rule: nonzero; opacity: 1;" vector-effect="non-scaling-stroke"  transform=" translate(-184, -464)" d="M 192 449.472 L 192 432 L 176 432 L 176 449.472 C 166.712 452.784 160 461.584 160 472 C 160 485.232 170.768 496 184 496 C 197.232 496 208 485.232 208 472 C 208 461.584 201.288 452.784 192 449.472 Z M 184 480 C 179.592 480 176 476.408 176 472 C 176 467.592 179.592 464 184 464 C 188.408 464 192 467.592 192 472 C 192 476.408 188.408 480 184 480 Z" stroke-linecap="round" />
</g>
		<g transform="matrix(1 0 0 1 -128 124)"  >
<path style="stroke: none; stroke-width: 1; stroke-dasharray: none; stroke-linecap: butt; stroke-dashoffset: 0; stroke-linejoin: miter; stroke-miterlimit: 4; fill: rgb(69,104,220); fill-rule: nonzero; opacity: 1;" vector-effect="non-scaling-stroke"  transform=" translate(-120, -372)" d="M 128 393.472 L 128 304 L 112 304 L 112 393.472 C 102.712 396.784 96 405.584 96 416 C 96 429.232 106.768 440 120 440 C 133.232 440 144 429.232 144 416 C 144 405.584 137.288 396.784 128 393.472 Z M 120 424 C 115.592 424 112 420.408 112 416 C 112 411.592 115.592 408 120 408 C 124.408 408 128 411.592 128 416 C 128 420.408 124.408 424 120 424 Z" stroke-linecap="round" />
</g>
		<g transform="matrix(1 0 0 1 -128 -32)"  >
<path style="stroke: none; stroke-width: 1; stroke-dasharray: none; stroke-linecap: butt; stroke-dashoffset: 0; stroke-linejoin: miter; stroke-miterlimit: 4; fill: rgb(69,104,220); fill-rule: nonzero; opacity: 1;" vector-effect="non-scaling-stroke"  transform=" translate(-120, -216)" d="M 112 208 L 128 208 L 128 224 L 112 224 L 112 208 Z" stroke-linecap="round" />
</g>
		<g transform="matrix(1 0 0 1 -128 0)"  >
<path style="stroke: none; stroke-width: 1; stroke-dasharray: none; stroke-linecap: butt; stroke-dashoffset: 0; stroke-linejoin: miter; stroke-miterlimit: 4; fill: rgb(69,104,220); fill-rule: nonzero; opacity: 1;" vector-effect="non-scaling-stroke"  transform=" translate(-120, -248)" d="M 112 240 L 128 240 L 128 256 L 112 256 L 112 240 Z" stroke-linecap="round" />
</g>
		<g transform="matrix(1 0 0 1 -128 32)"  >
<path style="stroke: none; stroke-width: 1; stroke-dasharray: none; stroke-linecap: butt; stroke-dashoffset: 0; stroke-linejoin: miter; stroke-miterlimit: 4; fill: rgb(69,104,220); fill-rule: nonzero; opacity: 1;" vector-effect="non-scaling-stroke"  transform=" translate(-120, -280)" d="M 112 272 L 128 272 L 128 288 L 112 288 L 112 272 Z" stroke-linecap="round" />
</g>
</g>
</g>
</svg>