<?xml version="1.0" encoding="UTF-8" standalone="no" ?>
<!DOCTYPE svg PUBLIC "-//W3C//DTD SVG 1.1//EN" "http://www.w3.org/Graphics/SVG/1.1/DTD/svg11.dtd">
<svg xmlns="http://www.w3.org/2000/svg" xmlns:xlink="http://www.w3.org/1999/xlink" version="1.1" width="1080" height="1080" viewBox="0 0 1080 1080" xml:space="preserve">
<desc>Created with Fabric.js 4.2.0</desc>
<defs>
</defs>
<g transform="matrix(1 0 0 1 540 540)" id="397bbd79-3936-4d2e-9ff5-8bca9b1695d3"  >
<rect style="stroke: none; stroke-width: 1; stroke-dasharray: none; stroke-linecap: butt; stroke-dashoffset: 0; stroke-linejoin: miter; stroke-miterlimit: 4; fill: rgb(255,255,255); fill-rule: nonzero; opacity: 1;" vector-effect="non-scaling-stroke"  x="-540" y="-540" rx="0" ry="0" width="1080" height="1080" />
</g>
<g transform="matrix(1 0 0 1 540 540)" id="3ed92ecb-e198-4a5a-9166-a6181423ab64"  >
</g>
<g transform="matrix(1.23 0 0 1.23 540 540)"  >
<g style="" vector-effect="non-scaling-stroke"   >
		<g transform="matrix(1 0 0 1 -43.5 14)"  >
<path style="stroke: none; stroke-width: 1; stroke-dasharray: none; stroke-linecap: butt; stroke-dashoffset: 0; stroke-linejoin: miter; stroke-miterlimit: 4; fill: rgb(69,104,220); fill-rule: nonzero; opacity: 1;" vector-effect="non-scaling-stroke"  transform=" translate(-131.5, -298)" d="M 131.5 284 C 122.401 284 115 290.282 115 298.001 C 115 305.721 122.401 312 131.5 312 C 140.599 312 148 305.721 148 298.001 C 148 290.282 140.599 284 131.5 284 L 131.5 284 Z M 131.5 303.064 C 128.208 303.064 125.533 300.792 125.533 297.999 C 125.533 295.208 128.208 292.936 131.5 292.936 C 134.792 292.936 137.47 295.208 137.47 297.999 C 137.47 300.792 134.789 303.064 131.5 303.064 Z" stroke-linecap="round" />
</g>
		<g transform="matrix(1 0 0 1 0 132.5)"  >
<path style="stroke: none; stroke-width: 1; stroke-dasharray: none; stroke-linecap: butt; stroke-dashoffset: 0; stroke-linejoin: miter; stroke-miterlimit: 4; fill: rgb(69,104,220); fill-rule: nonzero; opacity: 1;" vector-effect="non-scaling-stroke"  transform=" translate(-175, -416.5)" d="M 331.017 265 L 18.9831 265 C 8.51555 265 0 272.372 0 281.434 L 0 479.251 C 0 488.313 8.51555 495.685 18.9831 495.685 L 52.383 495.685 C 50.7969 497.444 50.9357 499.99 52.8049 501.608 L 77.6814 523.144 C 75.8175 526.454 74.1859 529.864 72.7974 533.336 L 37.6217 533.336 C 34.7645 533.336 32.4467 535.343 32.4467 537.818 L 32.4467 563.518 C 32.4467 565.993 34.7645 568 37.6217 568 L 139.792 568 C 142.652 568 144.97 565.993 144.97 563.518 C 144.97 549.842 157.822 538.715 173.619 538.715 C 189.414 538.715 202.266 549.842 202.266 563.518 C 202.266 565.993 204.584 568 207.444 568 L 309.615 568 C 312.474 568 314.792 565.993 314.792 563.518 L 314.792 537.818 C 314.792 535.343 312.474 533.336 309.615 533.336 L 274.439 533.336 C 273.05 529.864 271.419 526.454 269.555 523.144 L 294.434 501.608 C 296.301 499.99 296.439 497.444 294.853 495.685 L 331.014 495.685 C 341.482 495.685 349.997 488.313 349.997 479.251 L 349.997 368.366 C 349.997 365.89 347.68 363.883 344.822 363.883 C 341.962 363.883 339.645 365.89 339.645 368.366 L 339.645 479.251 C 339.645 483.371 335.773 486.72 331.014 486.72 L 284.559 486.72 L 254.043 460.302 L 254.043 429.647 C 254.043 427.171 251.723 425.164 248.866 425.164 L 239.546 425.164 L 239.546 397.544 L 246.852 391.705 C 248.321 390.53 248.879 388.732 248.286 387.081 L 235.861 352.419 C 235.188 350.545 233.183 349.266 230.916 349.266 L 217.108 349.266 C 214.841 349.266 212.835 350.545 212.162 352.419 L 199.738 387.081 C 199.145 388.732 199.703 390.53 201.171 391.705 L 208.48 397.544 L 208.48 425.164 L 199.161 425.164 C 196.301 425.164 193.983 427.171 193.983 429.647 L 193.983 441.3 L 153.253 441.3 L 153.253 434.492 L 173.136 417.279 C 174.108 416.438 174.653 415.298 174.653 414.11 L 174.653 377.354 C 174.653 376.156 174.097 375.007 173.112 374.166 L 145.501 350.559 C 144.014 349.287 141.792 348.915 139.867 349.611 C 137.939 350.309 136.684 351.939 136.684 353.746 L 136.684 393.704 L 123.223 401.042 L 109.762 393.704 L 109.762 391.15 C 109.762 388.674 107.444 386.667 104.585 386.667 C 101.725 386.667 99.4068 388.674 99.4068 391.15 L 99.4068 396.178 C 99.4068 397.72 100.32 399.151 101.826 399.971 L 120.465 410.131 C 122.15 411.051 124.297 411.051 125.982 410.131 L 144.62 399.971 C 146.126 399.151 147.039 397.72 147.039 396.178 L 147.039 364.473 L 164.297 379.226 L 164.297 412.251 L 144.415 429.464 C 143.443 430.306 142.898 431.445 142.898 432.636 L 142.898 441.39 C 140.535 441.806 138.756 443.614 138.756 445.782 L 138.756 476.234 C 134.743 477.434 130.807 478.849 126.98 480.46 L 103.548 460.175 L 103.548 432.636 C 103.548 431.445 103.004 430.306 102.032 429.464 L 82.1487 412.251 L 82.1487 379.226 L 99.4068 364.473 L 99.4068 370.157 C 99.4068 372.633 101.725 374.64 104.585 374.64 C 107.444 374.64 109.762 372.633 109.762 370.157 L 109.762 353.749 C 109.762 351.939 108.507 350.309 106.579 349.613 C 104.654 348.915 102.432 349.289 100.945 350.559 L 73.3315 374.166 C 72.3461 375.007 71.7934 376.156 71.7934 377.354 L 71.7934 414.11 C 71.7934 415.298 72.3381 416.438 73.3101 417.279 L 93.1931 434.492 L 93.1931 460.302 L 62.677 486.72 L 18.9831 486.72 C 14.2246 486.72 10.3554 483.371 10.3554 479.251 L 10.3554 330.142 L 339.645 330.142 L 339.645 347.484 C 339.645 349.958 341.962 351.964 344.822 351.964 C 347.682 351.964 350 349.958 350 347.484 L 350 281.434 C 350 272.372 341.484 265 331.017 265 L 331.017 265 Z M 217.169 392.289 L 210.598 387.037 L 220.926 358.231 L 227.103 358.231 L 237.429 387.037 L 230.857 392.289 C 229.797 393.138 229.191 394.331 229.191 395.584 L 229.191 425.167 L 218.838 425.167 L 218.838 395.584 C 218.835 394.331 218.232 393.138 217.169 392.289 L 217.169 392.289 Z M 243.688 434.129 L 243.688 460.177 L 220.256 480.463 C 216.43 478.851 212.494 477.437 208.48 476.234 L 208.48 445.785 C 208.48 443.616 206.702 441.809 204.338 441.392 L 204.338 434.131 L 243.688 434.131 L 243.688 434.129 Z M 128.417 489.89 C 133.851 487.384 139.581 485.326 145.448 483.775 C 147.624 483.2 149.112 481.459 149.112 479.487 L 149.112 450.265 L 198.125 450.265 L 198.125 479.487 C 198.125 481.459 199.615 483.2 201.791 483.775 C 207.658 485.326 213.388 487.384 218.822 489.89 C 220.833 490.817 223.306 490.498 224.918 489.104 L 248.793 468.435 L 278.751 494.372 C 278.754 494.372 278.754 494.374 278.757 494.377 L 283.451 498.438 L 259.576 519.107 C 257.966 520.501 257.597 522.644 258.668 524.385 C 261.563 529.087 263.939 534.048 265.731 539.129 C 266.396 541.013 268.407 542.301 270.682 542.301 L 304.437 542.301 L 304.437 559.035 L 251.797 559.035 C 249.122 523.715 215.084 495.688 173.619 495.688 C 162.532 495.688 151.817 497.652 141.766 501.527 C 139.154 502.535 137.979 505.184 139.143 507.447 C 140.305 509.708 143.37 510.723 145.979 509.717 C 154.695 506.356 163.993 504.652 173.619 504.652 C 209.372 504.652 238.769 528.662 241.421 559.035 L 212.28 559.035 C 209.74 542.53 193.372 529.753 173.619 529.753 C 153.867 529.753 137.498 542.53 134.959 559.035 L 105.813 559.035 C 107.071 544.317 114.523 530.793 127.116 520.568 C 129.202 518.876 129.309 516.04 127.351 514.232 C 125.397 512.429 122.12 512.336 120.035 514.029 C 105.556 525.781 96.7659 541.984 95.4468 559.035 L 42.7994 559.035 L 42.7994 542.301 L 76.5545 542.301 C 78.8322 542.301 80.843 541.013 81.5079 539.129 C 83.2996 534.048 85.6762 529.087 88.5708 524.385 C 89.6416 522.644 89.2731 520.501 87.6629 519.107 L 63.7878 498.438 L 68.4822 494.377 C 68.4822 494.374 68.4849 494.372 68.4875 494.372 L 98.4455 468.435 L 122.321 489.104 C 123.931 490.498 126.406 490.817 128.417 489.89 L 128.417 489.89 Z M 10.3554 321.177 L 10.3554 281.434 C 10.3554 277.314 14.2273 273.965 18.9831 273.965 L 331.017 273.965 C 335.775 273.965 339.645 277.317 339.645 281.434 L 339.645 321.177 L 10.3554 321.177 Z" stroke-linecap="round" />
</g>
		<g transform="matrix(1 0 0 1 -15 -159)"  >
<path style="stroke: none; stroke-width: 1; stroke-dasharray: none; stroke-linecap: butt; stroke-dashoffset: 0; stroke-linejoin: miter; stroke-miterlimit: 4; fill: rgb(69,104,220); fill-rule: nonzero; opacity: 1;" vector-effect="non-scaling-stroke"  transform=" translate(-160, -125)" d="M 160 131 C 163.866 131 167 128.314 167 125 C 167 121.686 163.866 119 160 119 C 156.134 119 153 121.686 153 125 C 153 128.314 156.134 131 160 131 Z" stroke-linecap="round" />
</g>
		<g transform="matrix(1 0 0 1 17.5 -158.5)"  >
<path style="stroke: none; stroke-width: 1; stroke-dasharray: none; stroke-linecap: butt; stroke-dashoffset: 0; stroke-linejoin: miter; stroke-miterlimit: 4; fill: rgb(69,104,220); fill-rule: nonzero; opacity: 1;" vector-effect="non-scaling-stroke"  transform=" translate(-192.5, -125.5)" d="M 179.101 130 L 205.899 130 C 208.717 130 211 127.985 211 125.5 C 211 123.015 208.717 121 205.899 121 L 179.101 121 C 176.283 121 174 123.015 174 125.5 C 174 127.985 176.284 130 179.101 130 Z" stroke-linecap="round" />
</g>
		<g transform="matrix(1 0 0 1 -12 -58.5)"  >
<path style="stroke: none; stroke-width: 1; stroke-dasharray: none; stroke-linecap: butt; stroke-dashoffset: 0; stroke-linejoin: miter; stroke-miterlimit: 4; fill: rgb(69,104,220); fill-rule: nonzero; opacity: 1;" vector-effect="non-scaling-stroke"  transform=" translate(-163, -225.5)" d="M 139.505 259.364 C 140.336 259.795 141.251 260 142.154 260 C 143.907 260 145.615 259.228 146.582 257.834 L 163 234.17 L 179.418 257.834 C 180.386 259.228 182.094 260 183.846 260 C 184.749 260 185.664 259.795 186.495 259.364 C 188.938 258.096 189.73 255.356 188.264 253.244 L 169.016 225.5 L 188.264 197.756 C 189.73 195.644 188.938 192.904 186.495 191.636 C 184.052 190.369 180.884 191.054 179.418 193.166 L 163 216.83 L 146.582 193.166 C 145.115 191.053 141.948 190.369 139.505 191.636 C 137.062 192.904 136.27 195.644 137.736 197.756 L 156.984 225.5 L 137.736 253.244 C 136.27 255.356 137.062 258.096 139.505 259.364 L 139.505 259.364 Z" stroke-linecap="round" />
</g>
		<g transform="matrix(1 0 0 1 -47 58.5)"  >
<path style="stroke: none; stroke-width: 1; stroke-dasharray: none; stroke-linecap: butt; stroke-dashoffset: 0; stroke-linejoin: miter; stroke-miterlimit: 4; fill: rgb(69,104,220); fill-rule: nonzero; opacity: 1;" vector-effect="non-scaling-stroke"  transform=" translate(-128, -342.5)" d="M 114.144 326 C 111.302 326 109 328 109 330.467 L 109 354.533 C 109 357 111.302 359 114.144 359 L 141.856 359 C 144.698 359 147 357 147 354.533 L 147 330.467 C 147 328 144.698 326 141.856 326 L 114.144 326 Z M 136.712 350.066 L 119.288 350.066 L 119.288 334.934 L 136.712 334.934 L 136.712 350.066 Z" stroke-linecap="round" />
</g>
		<g transform="matrix(1 0 0 1 4 58.5)"  >
<path style="stroke: none; stroke-width: 1; stroke-dasharray: none; stroke-linecap: butt; stroke-dashoffset: 0; stroke-linejoin: miter; stroke-miterlimit: 4; fill: rgb(69,104,220); fill-rule: nonzero; opacity: 1;" vector-effect="non-scaling-stroke"  transform=" translate(-179, -342.5)" d="M 192.856 326 L 165.144 326 C 162.302 326 160 328 160 330.467 L 160 354.533 C 160 357 162.302 359 165.144 359 L 192.856 359 C 195.698 359 198 357 198 354.533 L 198 330.467 C 198 327.999 195.698 326 192.856 326 Z M 187.712 350.066 L 170.288 350.066 L 170.288 334.934 L 187.712 334.934 L 187.712 350.066 Z" stroke-linecap="round" />
</g>
		<g transform="matrix(1 0 0 1 4 15.5)"  >
<path style="stroke: none; stroke-width: 1; stroke-dasharray: none; stroke-linecap: butt; stroke-dashoffset: 0; stroke-linejoin: miter; stroke-miterlimit: 4; fill: rgb(69,104,220); fill-rule: nonzero; opacity: 1;" vector-effect="non-scaling-stroke"  transform=" translate(-179, -299.5)" d="M 281 384.665 C 281 384.216 280.921 383.784 280.778 383.375 L 280.778 196.431 C 280.778 193.984 278.481 192 275.646 192 C 272.812 192 270.515 193.984 270.515 196.431 L 270.515 380.234 L 87.2626 380.234 L 87.2626 320.547 C 87.2626 318.1 84.9658 316.116 82.1313 316.116 C 79.2968 316.116 77 318.1 77 320.547 L 77 402.569 C 77 405.016 79.2968 407 82.1313 407 L 275.646 407 C 278.481 407 280.778 405.016 280.778 402.569 L 280.778 385.955 C 280.921 385.547 281 385.114 281 384.665 Z M 87.2626 398.138 L 87.2626 389.096 L 270.515 389.096 L 270.515 398.138 L 87.2626 398.138 Z" stroke-linecap="round" />
</g>
		<g transform="matrix(1 0 0 1 -18 -78)"  >
<path style="stroke: none; stroke-width: 1; stroke-dasharray: none; stroke-linecap: butt; stroke-dashoffset: 0; stroke-linejoin: miter; stroke-miterlimit: 4; fill: rgb(69,104,220); fill-rule: nonzero; opacity: 1;" vector-effect="non-scaling-stroke"  transform=" translate(-157, -206)" d="M 77.0494 299.78 C 77.0494 302.234 79.3482 304.224 82.1852 304.224 C 85.0221 304.224 87.3209 302.234 87.3209 299.78 L 87.3209 278.074 L 160.519 278.074 L 193.601 306.698 C 194.584 307.549 195.898 308 197.234 308 C 197.896 308 198.563 307.889 199.198 307.662 C 201.118 306.974 202.369 305.353 202.369 303.556 L 202.369 278.075 L 204.15 278.075 C 214.61 278.075 223.12 270.712 223.12 261.661 L 223.12 189.84 C 223.12 180.789 214.61 173.426 204.15 173.426 L 140.335 173.426 C 137.498 173.426 135.2 175.415 135.2 177.87 C 135.2 180.324 137.498 182.313 140.335 182.313 L 204.149 182.313 C 208.946 182.313 212.848 185.69 212.848 189.84 L 212.848 261.66 C 212.848 265.81 208.946 269.186 204.149 269.186 L 197.232 269.186 C 194.395 269.186 192.097 271.176 192.097 273.63 L 192.097 292.828 L 166.278 270.488 C 165.314 269.655 164.008 269.186 162.646 269.186 L 82.2516 269.186 C 82.2297 269.186 82.2078 269.184 82.1852 269.184 C 82.1626 269.184 82.1413 269.186 82.1188 269.186 L 51.97 269.186 C 47.1732 269.186 43.2714 265.81 43.2714 261.66 L 43.2714 189.84 C 43.2714 185.69 47.1732 182.313 51.97 182.313 L 116.425 182.313 C 119.262 182.313 121.561 180.324 121.561 177.87 C 121.561 175.415 119.262 173.426 116.425 173.426 L 87.3209 173.426 L 87.3209 130.842 L 126.921 130.842 L 131.928 140.373 C 134.999 146.218 141.778 149.994 149.199 149.994 L 208.851 149.994 C 216.271 149.994 223.05 146.217 226.121 140.373 L 231.128 130.842 L 270.729 130.842 L 270.729 175.377 C 270.729 177.831 273.027 179.821 275.864 179.821 C 278.701 179.821 281 177.831 281 175.377 L 281 108.444 C 281 105.99 278.701 104 275.864 104 L 82.1852 104 C 79.3482 104 77.0494 105.99 77.0494 108.444 L 77.0494 173.427 L 51.97 173.427 C 41.5102 173.427 33 180.79 33 189.841 L 33 261.661 C 33 270.711 41.5102 278.074 51.97 278.074 L 77.0494 278.074 L 77.0494 299.78 Z M 270.728 112.887 L 270.728 121.955 L 227.821 121.955 C 225.807 121.955 223.979 122.974 223.145 124.56 L 216.769 136.695 C 215.361 139.375 212.253 141.107 208.851 141.107 L 149.199 141.107 C 145.796 141.107 142.687 139.375 141.28 136.695 L 134.904 124.56 C 134.07 122.973 132.243 121.955 130.229 121.955 L 87.3216 121.955 L 87.3216 112.887 L 270.728 112.887 Z" stroke-linecap="round" />
</g>
		<g transform="matrix(1 0 0 1 1 -139)"  >
<path style="stroke: none; stroke-width: 1; stroke-dasharray: none; stroke-linecap: butt; stroke-dashoffset: 0; stroke-linejoin: miter; stroke-miterlimit: 4; fill: rgb(69,104,220); fill-rule: nonzero; opacity: 1;" vector-effect="non-scaling-stroke"  transform=" translate(-176, -145)" d="M 176.181 131 C 173.337 131 171.031 133.031 171.031 135.537 L 171.031 143.276 L 167.845 140.384 C 165.864 138.586 162.604 138.543 160.563 140.288 C 158.522 142.033 158.473 144.905 160.455 146.703 L 172.486 157.623 C 173.457 158.504 174.789 159 176.182 159 L 176.222 159 C 177.627 158.99 178.968 158.475 179.933 157.572 L 191.6 146.652 C 193.55 144.828 193.45 141.956 191.38 140.239 C 189.309 138.522 186.051 138.608 184.099 140.433 L 181.333 143.023 L 181.333 135.536 C 181.331 133.031 179.025 131 176.181 131 L 176.181 131 Z" stroke-linecap="round" />
</g>
		<g transform="matrix(1 0 0 1 1 -3.5)"  >
<path style="stroke: none; stroke-width: 1; stroke-dasharray: none; stroke-linecap: butt; stroke-dashoffset: 0; stroke-linejoin: miter; stroke-miterlimit: 4; fill: rgb(69,104,220); fill-rule: nonzero; opacity: 1;" vector-effect="non-scaling-stroke"  transform=" translate(-176, -280.5)" d="M 243.691 258 L 108.308 258 C 101.521 258 96 262.735 96 268.555 L 96 292.445 C 96 298.265 101.522 303 108.308 303 L 145.732 303 C 148.568 303 150.868 301.028 150.868 298.596 C 150.868 296.163 148.568 294.192 145.732 294.192 L 108.308 294.192 C 107.186 294.192 106.272 293.408 106.272 292.445 L 106.272 268.555 C 106.272 267.592 107.186 266.808 108.308 266.808 L 243.691 266.808 C 244.814 266.808 245.728 267.592 245.728 268.555 L 245.728 292.445 C 245.728 293.408 244.814 294.192 243.691 294.192 L 169.53 294.192 C 166.694 294.192 164.394 296.163 164.394 298.596 C 164.394 301.028 166.694 303 169.53 303 L 243.691 303 C 250.478 303 256 298.265 256 292.445 L 256 268.555 C 256 262.735 250.478 258 243.691 258 L 243.691 258 Z" stroke-linecap="round" />
</g>
		<g transform="matrix(1 0 0 1 1 -181.5)"  >
<path style="stroke: none; stroke-width: 1; stroke-dasharray: none; stroke-linecap: butt; stroke-dashoffset: 0; stroke-linejoin: miter; stroke-miterlimit: 4; fill: rgb(69,104,220); fill-rule: nonzero; opacity: 1;" vector-effect="non-scaling-stroke"  transform=" translate(-176, -102.5)" d="M 243.691 80 L 143.963 80 C 141.126 80 138.827 81.9719 138.827 84.4043 C 138.827 86.8366 141.126 88.8086 143.963 88.8086 L 243.691 88.8086 C 244.814 88.8086 245.727 89.5919 245.727 90.5544 L 245.727 114.446 C 245.727 115.408 244.814 116.191 243.691 116.191 L 108.307 116.191 C 107.185 116.191 106.271 115.408 106.271 114.446 L 106.271 90.5544 C 106.271 89.5919 107.185 88.8086 108.307 88.8086 L 120.166 88.8086 C 123.002 88.8086 125.302 86.8366 125.302 84.4043 C 125.302 81.9719 123.002 80 120.166 80 L 108.308 80 C 101.521 80 96 84.7349 96 90.5544 L 96 114.446 C 96 120.266 101.522 125 108.308 125 L 243.691 125 C 250.478 125 256 120.265 256 114.446 L 256 90.5544 C 255.999 84.7343 250.478 80 243.691 80 Z" stroke-linecap="round" />
</g>
		<g transform="matrix(1 0 0 1 1.5 -90.5)"  >
<path style="stroke: none; stroke-width: 1; stroke-dasharray: none; stroke-linecap: butt; stroke-dashoffset: 0; stroke-linejoin: miter; stroke-miterlimit: 4; fill: rgb(69,104,220); fill-rule: nonzero; opacity: 1;" vector-effect="non-scaling-stroke"  transform=" translate(-176.5, -193.5)" d="M 109 193.245 C 108.979 197.647 112.019 201.542 116.745 203.171 L 166.6 220.35 C 169.792 221.45 173.146 222 176.5 222 C 179.854 222 183.208 221.45 186.4 220.35 L 236.254 203.171 C 240.981 201.543 244.021 197.647 244 193.245 C 243.979 188.843 240.901 184.969 236.159 183.375 L 217.397 177.067 C 214.753 176.18 211.783 177.312 210.757 179.597 C 209.731 181.882 211.04 184.453 213.68 185.341 L 232.443 191.649 C 233.566 192.027 233.738 192.834 233.739 193.282 C 233.741 193.729 233.578 194.538 232.458 194.924 L 182.603 212.103 C 178.667 213.459 174.332 213.459 170.395 212.103 L 120.54 194.924 C 119.421 194.538 119.257 193.729 119.259 193.282 C 119.261 192.834 119.433 192.027 120.556 191.649 L 170.524 174.85 C 174.377 173.555 178.62 173.555 182.473 174.85 L 191.638 177.931 C 194.282 178.82 197.252 177.686 198.278 175.402 C 199.304 173.118 197.995 170.545 195.355 169.658 L 186.19 166.576 C 179.941 164.475 173.057 164.475 166.809 166.576 L 116.841 183.375 C 112.1 184.969 109.022 188.844 109 193.245 L 109 193.245 Z" stroke-linecap="round" />
</g>
		<g transform="matrix(1 0 0 1 1 -222.5)"  >
<path style="stroke: none; stroke-width: 1; stroke-dasharray: none; stroke-linecap: butt; stroke-dashoffset: 0; stroke-linejoin: miter; stroke-miterlimit: 4; fill: rgb(69,104,220); fill-rule: nonzero; opacity: 1;" vector-effect="non-scaling-stroke"  transform=" translate(-176, -61.5)" d="M 176.181 48 C 173.337 48 171.031 49.9587 171.031 52.3746 L 171.031 59.8371 L 167.845 57.0484 C 165.864 55.3149 162.604 55.2735 160.563 56.9563 C 158.522 58.639 158.473 61.4084 160.455 63.1419 L 172.486 73.6725 C 173.457 74.5217 174.789 75 176.182 75 L 176.222 75 C 177.628 74.9907 178.968 74.4931 179.933 73.6235 L 191.6 63.0929 C 193.55 61.3338 193.45 58.5649 191.38 56.909 C 189.309 55.2537 186.051 55.3371 184.099 57.0962 L 181.333 59.5933 L 181.333 52.3746 C 181.331 49.9587 179.025 48 176.181 48 L 176.181 48 Z" stroke-linecap="round" />
</g>
		<g transform="matrix(1 0 0 1 1 -261.5)"  >
<path style="stroke: none; stroke-width: 1; stroke-dasharray: none; stroke-linecap: butt; stroke-dashoffset: 0; stroke-linejoin: miter; stroke-miterlimit: 4; fill: rgb(69,104,220); fill-rule: nonzero; opacity: 1;" vector-effect="non-scaling-stroke"  transform=" translate(-176, -22.5)" d="M 243.691 0 L 108.308 0 C 101.521 0 96 4.73483 96 10.5549 L 96 34.4451 C 96 40.2652 101.522 45 108.308 45 L 243.691 45 C 250.478 45 256 40.2652 256 34.4451 L 256 10.5549 C 256 4.73483 250.478 0 243.691 0 L 243.691 0 Z M 245.728 34.4451 C 245.728 35.4082 244.814 36.1916 243.691 36.1916 L 108.308 36.1916 C 107.186 36.1916 106.272 35.4082 106.272 34.4451 L 106.272 10.5549 C 106.272 9.59181 107.186 8.80845 108.308 8.80845 L 243.691 8.80845 C 244.814 8.80845 245.728 9.59181 245.728 10.5549 L 245.728 34.4451 Z" stroke-linecap="round" />
</g>
</g>
</g>
</svg>