<?xml version="1.0" encoding="UTF-8" standalone="no" ?>
<!DOCTYPE svg PUBLIC "-//W3C//DTD SVG 1.1//EN" "http://www.w3.org/Graphics/SVG/1.1/DTD/svg11.dtd">
<svg xmlns="http://www.w3.org/2000/svg" xmlns:xlink="http://www.w3.org/1999/xlink" version="1.1" width="1080" height="1080" viewBox="0 0 1080 1080" xml:space="preserve">
<desc>Created with Fabric.js 4.2.0</desc>
<defs>
</defs>
<rect x="0" y="0" width="100%" height="100%" fill="transparent"></rect>
<g transform="matrix(1 0 0 1 540 540)" id="397bbd79-3936-4d2e-9ff5-8bca9b1695d3"  >
<rect style="stroke: none; stroke-width: 1; stroke-dasharray: none; stroke-linecap: butt; stroke-dashoffset: 0; stroke-linejoin: miter; stroke-miterlimit: 4; fill: rgb(255,255,255); fill-rule: nonzero; opacity: 1;" vector-effect="non-scaling-stroke"  x="-540" y="-540" rx="0" ry="0" width="1080" height="1080" />
</g>
<g transform="matrix(1 0 0 1 540 540)" id="3ed92ecb-e198-4a5a-9166-a6181423ab64"  >
</g>
<g transform="matrix(0.84 0 0 0.84 540 540)"  >
<g style="" vector-effect="non-scaling-stroke"   >
		<g transform="matrix(1 0 0 1 -121 146)"  >
<path style="stroke: none; stroke-width: 1; stroke-dasharray: none; stroke-linecap: butt; stroke-dashoffset: 0; stroke-linejoin: miter; stroke-miterlimit: 4; fill: rgb(69,104,220); fill-rule: nonzero; opacity: 1;" vector-effect="non-scaling-stroke"  transform=" translate(-135, -402)" d="M 225.001 357 L 220 357 L 220 307 C 220 298.716 213.284 292 205 292 L 140 292 C 131.716 292 125 298.716 125 307 L 125 325.303 C 125 334.089 118.643 341.57 110.829 341.979 C 106.657 342.208 102.69 340.744 99.678 337.884 C 96.661 335.021 95 331.155 95 327 L 95 307 C 95 298.716 88.284 292 80 292 L 15 292 C 6.716 292 0 298.716 0 307 L 0 457 C 0 487.327 24.673 512 55 512 L 205 512 C 213.284 512 220 505.284 220 497 L 220 447 L 225 447 C 249.813 447 270 426.813 270 402 C 270 377.187 249.813 357 225.001 357 L 225.001 357 Z M 225 417 L 205 417 C 196.716 417 190 423.716 190 432 L 190 482 L 55 482 C 41.215 482 30 470.785 30 457 L 30 322 L 65 322 L 65 327 C 65 339.286 70.112 351.185 79.026 359.644 C 88.067 368.226 99.92 372.595 112.397 371.938 C 136.287 370.687 155 350.203 155 325.303 L 155 322 L 190 322 L 190 372 C 190 380.284 196.716 387 205 387 L 225.001 387 C 233.272 387 240 393.729 240 402 C 240 410.271 233.271 417 225 417 Z" stroke-linecap="round" />
</g>
		<g transform="matrix(1 0 0 1 51 -51)"  >
<path style="stroke: none; stroke-width: 1; stroke-dasharray: none; stroke-linecap: butt; stroke-dashoffset: 0; stroke-linejoin: miter; stroke-miterlimit: 4; fill: rgb(69,104,220); fill-rule: nonzero; opacity: 1;" vector-effect="non-scaling-stroke"  transform=" translate(-307, -205)" d="M 512 55 C 512 24.673 487.327 0 457 0 L 307 0 L 157 0 C 126.673 0 102 24.673 102 55.001 L 102.001 205 C 102.001 213.284 108.717 220 117.001 220 L 167 220 L 167 225 C 167 249.813 187.188 270 212.001 270 C 236.813 270 257 249.813 257 225.001 L 257 220 L 291.999 220 L 292 270 C 292 278.284 298.716 285 307 285 L 325.303 285 C 334.089 285 341.57 291.357 341.979 299.171 C 342.198 303.35 340.744 307.31 337.884 310.322 C 335.021 313.339 331.156 315 327 315 L 307 315 C 298.716 315 292 321.716 292 330 L 292 395 C 292 403.284 298.716 410 307 410 L 457 410 C 487.327 410 512 385.327 512 355 L 512 55 Z M 322 80 L 322 30 L 457 30 C 470.785 30 482 41.215 482 55 L 482 190 L 447 190 L 447 185 C 447 172.714 441.888 160.815 432.974 152.356 C 423.932 143.774 412.068 139.409 399.603 140.062 C 375.713 141.313 357 161.798 357 186.697 L 357 190 L 322.001 190 L 322 140 C 322 131.716 315.284 125 307 125 L 288.697 125 C 279.911 125 272.43 118.643 272.021 110.829 C 271.802 106.651 273.256 102.69 276.116 99.678 C 278.979 96.661 282.845 95 287 95 L 307 95 C 315.284 95 322 88.284 322 80 L 322 80 Z M 242 190 C 233.716 190 227 196.716 227 205 L 227 225.001 C 227 233.272 220.271 240 212 240 C 203.729 240 197 233.271 197 225 L 197 205 C 197 196.716 190.284 190 182 190 L 132.001 190 L 132 55.001 C 132 41.216 143.215 30 157 30 L 292 30 L 292 65 L 287 65 C 274.714 65 262.815 70.112 254.356 79.026 C 245.775 88.067 241.409 99.919 242.062 112.397 C 243.313 136.287 263.797 155 288.697 155 L 292 155 L 292.001 190 L 242 190 Z M 457 380 L 322 380 L 322 345 L 327 345 C 339.286 345 351.185 339.888 359.645 330.974 C 368.225 321.933 372.591 310.081 371.938 297.603 C 370.687 273.713 350.202 255 325.303 255 L 322 255 L 321.999 220 L 372 220 C 380.284 220 387 213.284 387 205 L 387 186.697 C 387 177.911 393.357 170.43 401.171 170.021 C 405.346 169.809 409.311 171.257 412.322 174.116 C 415.339 176.979 417 180.845 417 185 L 417 205 C 417 213.284 423.716 220 432 220 L 481.999 220 L 482 355 C 482 368.785 470.785 380 457 380 Z" stroke-linecap="round" />
</g>
</g>
</g>
</svg>