<?xml version="1.0" encoding="UTF-8" standalone="no" ?>
<!DOCTYPE svg PUBLIC "-//W3C//DTD SVG 1.1//EN" "http://www.w3.org/Graphics/SVG/1.1/DTD/svg11.dtd">
<svg xmlns="http://www.w3.org/2000/svg" xmlns:xlink="http://www.w3.org/1999/xlink" version="1.1" width="1080" height="1080" viewBox="0 0 1080 1080" xml:space="preserve">
<desc>Created with Fabric.js 4.2.0</desc>
<defs>
</defs>
<rect x="0" y="0" width="100%" height="100%" fill="transparent"></rect>
<g transform="matrix(1 0 0 1 540 540)" id="397bbd79-3936-4d2e-9ff5-8bca9b1695d3"  >
<rect style="stroke: none; stroke-width: 1; stroke-dasharray: none; stroke-linecap: butt; stroke-dashoffset: 0; stroke-linejoin: miter; stroke-miterlimit: 4; fill: rgb(255,255,255); fill-rule: nonzero; opacity: 1;" vector-effect="non-scaling-stroke"  x="-540" y="-540" rx="0" ry="0" width="1080" height="1080" />
</g>
<g transform="matrix(1 0 0 1 540 540)" id="3ed92ecb-e198-4a5a-9166-a6181423ab64"  >
</g>
<g transform="matrix(0.84 0 0 0.84 540 540)"  >
<g style="" vector-effect="non-scaling-stroke"   >
		<g transform="matrix(1 0 0 1 -190.87 -200.96)"  >
<path style="stroke: none; stroke-width: 1; stroke-dasharray: none; stroke-linecap: butt; stroke-dashoffset: 0; stroke-linejoin: miter; stroke-miterlimit: 4; fill: rgb(69,104,220); fill-rule: nonzero; opacity: 1;" vector-effect="non-scaling-stroke"  transform=" translate(-65.13, -55.04)" d="M 65.1367 31.3047 C 52.0508 31.3047 41.4023 41.9531 41.4023 55.0391 C 41.4023 68.125 52.0508 78.7695 65.1367 78.7695 C 78.2227 78.7695 88.8672 68.1211 88.8672 55.0352 C 88.8672 41.9492 78.2227 31.3047 65.1367 31.3047 L 65.1367 31.3047 Z M 65.1367 63.6211 C 60.4023 63.6211 56.5508 59.7695 56.5508 55.0352 C 56.5508 50.3047 60.4023 46.4531 65.1367 46.4531 C 69.8672 46.4531 73.7188 50.3047 73.7188 55.0352 C 73.7188 59.7695 69.8672 63.6211 65.1367 63.6211 Z" stroke-linecap="round" />
</g>
		<g transform="matrix(1 0 0 1 -127.24 -200.96)"  >
<path style="stroke: none; stroke-width: 1; stroke-dasharray: none; stroke-linecap: butt; stroke-dashoffset: 0; stroke-linejoin: miter; stroke-miterlimit: 4; fill: rgb(69,104,220); fill-rule: nonzero; opacity: 1;" vector-effect="non-scaling-stroke"  transform=" translate(-128.76, -55.04)" d="M 128.758 31.3047 C 115.672 31.3047 105.023 41.9531 105.023 55.0391 C 105.023 68.125 115.672 78.7695 128.758 78.7695 C 141.844 78.7695 152.488 68.125 152.488 55.0391 C 152.488 41.9531 141.844 31.3047 128.758 31.3047 L 128.758 31.3047 Z M 128.758 63.6211 C 124.023 63.6211 120.172 59.7695 120.172 55.0352 C 120.172 50.3047 124.023 46.4531 128.758 46.4531 C 133.488 46.4531 137.34 50.3047 137.34 55.0352 C 137.34 59.7695 133.488 63.6211 128.758 63.6211 Z" stroke-linecap="round" />
</g>
		<g transform="matrix(1 0 0 1 -63.62 -200.96)"  >
<path style="stroke: none; stroke-width: 1; stroke-dasharray: none; stroke-linecap: butt; stroke-dashoffset: 0; stroke-linejoin: miter; stroke-miterlimit: 4; fill: rgb(69,104,220); fill-rule: nonzero; opacity: 1;" vector-effect="non-scaling-stroke"  transform=" translate(-192.38, -55.04)" d="M 192.379 31.3047 C 179.293 31.3047 168.648 41.9531 168.648 55.0391 C 168.648 68.125 179.293 78.7695 192.379 78.7695 C 205.465 78.7695 216.109 68.125 216.109 55.0391 C 216.109 41.9531 205.465 31.3047 192.379 31.3047 L 192.379 31.3047 Z M 192.379 63.6211 C 187.645 63.6211 183.797 59.7695 183.797 55.0352 C 183.797 50.3047 187.645 46.4531 192.379 46.4531 C 197.113 46.4531 200.965 50.3047 200.965 55.0352 C 200.965 59.7695 197.109 63.6211 192.379 63.6211 Z" stroke-linecap="round" />
</g>
		<g transform="matrix(1 0 0 1 0 0)"  >
<path style="stroke: none; stroke-width: 1; stroke-dasharray: none; stroke-linecap: butt; stroke-dashoffset: 0; stroke-linejoin: miter; stroke-miterlimit: 4; fill: rgb(69,104,220); fill-rule: nonzero; opacity: 1;" vector-effect="non-scaling-stroke"  transform=" translate(-256, -256)" d="M 484.23 0 L 27.7695 0 C 12.457 0 0 12.457 0 27.7695 L 0 362.035 C 0 377.348 12.457 389.805 27.7695 389.805 L 76.6289 389.805 C 74.3086 392.777 74.5117 397.078 77.2461 399.812 L 113.637 436.203 C 110.91 441.797 108.523 447.559 106.492 453.426 L 55.0352 453.426 C 50.8555 453.426 47.4648 456.816 47.4648 461 L 47.4648 504.426 C 47.4648 508.609 50.8555 512 55.0352 512 L 204.496 512 C 208.68 512 212.07 508.609 212.07 504.426 C 212.07 481.316 230.871 462.516 253.98 462.516 C 277.086 462.516 295.887 481.316 295.887 504.426 C 295.887 508.609 299.277 512 303.461 512 L 452.922 512 C 457.105 512 460.496 508.609 460.496 504.426 L 460.496 461 C 460.496 456.816 457.105 453.426 452.922 453.426 L 401.465 453.426 C 399.434 447.559 397.047 441.797 394.32 436.203 L 430.715 399.812 C 433.445 397.078 433.648 392.777 431.328 389.805 L 484.227 389.805 C 499.539 389.805 511.996 377.348 511.996 362.035 L 511.996 174.664 C 511.996 170.48 508.605 167.09 504.426 167.09 C 500.242 167.09 496.852 170.48 496.852 174.664 L 496.852 362.035 C 496.852 368.996 491.188 374.656 484.227 374.656 L 416.27 374.656 L 371.629 330.016 L 371.629 278.215 C 371.629 274.031 368.234 270.641 364.055 270.641 L 350.422 270.641 L 350.422 223.969 L 361.109 214.102 C 363.258 212.117 364.074 209.078 363.207 206.289 L 345.031 147.719 C 344.047 144.551 341.113 142.391 337.797 142.391 L 317.598 142.391 C 314.281 142.391 311.348 144.551 310.363 147.719 L 292.188 206.289 C 291.32 209.078 292.137 212.117 294.285 214.102 L 304.977 223.969 L 304.977 270.641 L 291.344 270.641 C 287.16 270.641 283.77 274.031 283.77 278.215 L 283.77 297.906 L 224.188 297.906 L 224.188 286.402 L 253.273 257.316 C 254.695 255.895 255.492 253.969 255.492 251.961 L 255.492 189.852 C 255.492 187.828 254.68 185.887 253.238 184.465 L 212.848 144.574 C 210.672 142.426 207.422 141.797 204.605 142.973 C 201.785 144.152 199.949 146.906 199.949 149.961 L 199.949 217.48 L 180.258 229.879 L 160.566 217.48 L 160.566 213.164 C 160.566 208.98 157.176 205.59 152.992 205.59 C 148.809 205.59 145.418 208.98 145.418 213.164 L 145.418 221.66 C 145.418 224.266 146.754 226.684 148.957 228.07 L 176.223 245.238 C 178.688 246.793 181.828 246.793 184.293 245.238 L 211.559 228.07 C 213.762 226.684 215.098 224.266 215.098 221.66 L 215.098 168.086 L 240.344 193.016 L 240.344 248.82 L 211.258 277.906 C 209.836 279.328 209.039 281.254 209.039 283.266 L 209.039 298.059 C 205.582 298.762 202.98 301.816 202.98 305.48 L 202.98 356.938 C 197.109 358.965 191.352 361.355 185.754 364.078 L 151.477 329.801 L 151.477 283.266 C 151.477 281.254 150.68 279.328 149.258 277.906 L 120.172 248.82 L 120.172 193.016 L 145.418 168.086 L 145.418 177.691 C 145.418 181.875 148.809 185.266 152.992 185.266 C 157.176 185.266 160.566 181.875 160.566 177.691 L 160.566 149.965 C 160.566 146.906 158.73 144.152 155.91 142.977 C 153.094 141.797 149.844 142.43 147.668 144.574 L 107.273 184.465 C 105.832 185.887 105.023 187.828 105.023 189.852 L 105.023 251.961 C 105.023 253.969 105.82 255.895 107.242 257.316 L 136.328 286.402 L 136.328 330.016 L 91.6875 374.656 L 27.7695 374.656 C 20.8086 374.656 15.1484 368.996 15.1484 362.035 L 15.1484 110.074 L 496.852 110.074 L 496.852 139.379 C 496.852 143.559 500.242 146.949 504.426 146.949 C 508.609 146.949 512 143.559 512 139.379 L 512 27.7695 C 512 12.457 499.543 0 484.23 0 L 484.23 0 Z M 317.688 215.09 L 308.074 206.215 L 323.184 157.539 L 332.219 157.539 L 347.324 206.215 L 337.711 215.09 C 336.16 216.523 335.273 218.539 335.273 220.656 L 335.273 270.645 L 320.129 270.645 L 320.129 220.656 C 320.125 218.539 319.242 216.523 317.688 215.09 L 317.688 215.09 Z M 356.48 285.789 L 356.48 329.805 L 322.203 364.082 C 316.605 361.359 310.848 358.969 304.977 356.938 L 304.977 305.484 C 304.977 301.82 302.375 298.766 298.918 298.062 L 298.918 285.793 L 356.48 285.793 L 356.48 285.789 Z M 187.855 380.012 C 195.805 375.777 204.188 372.301 212.77 369.68 C 215.953 368.707 218.129 365.766 218.129 362.434 L 218.129 313.055 L 289.828 313.055 L 289.828 362.434 C 289.828 365.766 292.008 368.707 295.191 369.68 C 303.773 372.301 312.156 375.777 320.105 380.012 C 323.047 381.578 326.664 381.039 329.023 378.684 L 363.949 343.758 L 407.773 387.586 C 407.777 387.586 407.777 387.59 407.781 387.594 L 414.648 394.457 L 379.723 429.383 C 377.367 431.738 376.828 435.359 378.395 438.301 C 382.629 446.246 386.105 454.629 388.727 463.215 C 389.699 466.398 392.641 468.574 395.969 468.574 L 445.348 468.574 L 445.348 496.852 L 368.344 496.852 C 364.43 437.168 314.637 389.809 253.98 389.809 C 237.762 389.809 222.086 393.129 207.383 399.676 C 203.563 401.379 201.844 405.855 203.547 409.68 C 205.246 413.5 209.73 415.215 213.547 413.516 C 226.297 407.836 239.898 404.957 253.98 404.957 C 306.281 404.957 349.285 445.527 353.164 496.852 L 310.535 496.852 C 306.82 468.961 282.875 447.371 253.98 447.371 C 225.086 447.371 201.141 468.961 197.426 496.852 L 154.789 496.852 C 156.629 471.98 167.531 449.129 185.953 431.852 C 189.004 428.992 189.16 424.199 186.297 421.145 C 183.438 418.098 178.645 417.941 175.594 420.801 C 154.414 440.66 141.555 468.039 139.625 496.852 L 62.6094 496.852 L 62.6094 468.574 L 111.988 468.574 C 115.32 468.574 118.262 466.398 119.234 463.215 C 121.855 454.629 125.332 446.246 129.566 438.301 C 131.133 435.359 130.594 431.738 128.238 429.383 L 93.3125 394.457 L 100.18 387.594 C 100.18 387.59 100.184 387.586 100.188 387.586 L 144.012 343.758 L 178.938 378.684 C 181.293 381.039 184.914 381.578 187.855 380.012 L 187.855 380.012 Z M 15.1484 94.9258 L 15.1484 27.7695 C 15.1484 20.8086 20.8125 15.1484 27.7695 15.1484 L 484.23 15.1484 C 491.191 15.1484 496.852 20.8125 496.852 27.7695 L 496.852 94.9258 L 15.1484 94.9258 Z" stroke-linecap="round" />
</g>
</g>
</g>
</svg>