<?xml version="1.0" encoding="UTF-8" standalone="no" ?>
<!DOCTYPE svg PUBLIC "-//W3C//DTD SVG 1.1//EN" "http://www.w3.org/Graphics/SVG/1.1/DTD/svg11.dtd">
<svg xmlns="http://www.w3.org/2000/svg" xmlns:xlink="http://www.w3.org/1999/xlink" version="1.1" width="1080" height="1080" viewBox="0 0 1080 1080" xml:space="preserve">
<desc>Created with Fabric.js 4.2.0</desc>
<defs>
</defs>
<rect x="0" y="0" width="100%" height="100%" fill="transparent"></rect>
<g transform="matrix(1 0 0 1 540 540)" id="397bbd79-3936-4d2e-9ff5-8bca9b1695d3"  >
<rect style="stroke: none; stroke-width: 1; stroke-dasharray: none; stroke-linecap: butt; stroke-dashoffset: 0; stroke-linejoin: miter; stroke-miterlimit: 4; fill: rgb(255,255,255); fill-rule: nonzero; opacity: 1;" vector-effect="non-scaling-stroke"  x="-540" y="-540" rx="0" ry="0" width="1080" height="1080" />
</g>
<g transform="matrix(1 0 0 1 540 540)" id="3ed92ecb-e198-4a5a-9166-a6181423ab64"  >
</g>
<g transform="matrix(2.44 0 0 2.44 540 540)"  >
<g style="" vector-effect="non-scaling-stroke"   >
		<g transform="matrix(1 0 0 1 0 0)"  >
<path style="stroke: none; stroke-width: 1; stroke-dasharray: none; stroke-linecap: butt; stroke-dashoffset: 0; stroke-linejoin: miter; stroke-miterlimit: 4; fill: rgb(69,104,220); fill-rule: nonzero; opacity: 1;" vector-effect="non-scaling-stroke"  transform=" translate(-256, -256)" d="M 268 272 L 199.36 272 L 176 432 L 256 496 L 336 432 L 287.02 96.56 L 283.28999999999996 96.41 L 283.28299999999996 96.41 L 311.99999999999994 80 L 295.99999999999994 16 L 215.99999999999994 16 L 199.99999999999994 80 L 224.53499999999994 94.02 L 223.99999999999994 94 L 202.67999999999995 248 L 267.99999999999994 248 C 274.6274169979695 248 279.99999999999994 253.37258300203047 279.99999999999994 260 C 279.99999999999994 266.62741699796953 274.6274169979695 272 267.99999999999994 272 z" stroke-linecap="round" />
</g>
		<g transform="matrix(1 0 0 1 0 0)"  >
<path style="stroke: none; stroke-width: 1; stroke-dasharray: none; stroke-linecap: butt; stroke-dashoffset: 0; stroke-linejoin: miter; stroke-miterlimit: 4; fill: rgb(69,104,220); fill-rule: nonzero; opacity: 1;" vector-effect="non-scaling-stroke"  transform=" translate(-256, -256)" d="M 343.92 430.84 L 295.42 98.69 L 315.97 86.95 C 319.08270854561187 85.17074510701082 320.63150665827607 81.53781233086713 319.76000000000005 78.06 L 303.76000000000005 14.060000000000002 C 302.86987975593485 10.498963095265132 299.6705990760242 8.000555760180262 296.00000000000006 8.000000000000004 L 216.00000000000006 8.000000000000004 C 212.32940092397595 8.000555760180264 209.1301202440653 10.49896309526513 208.24000000000007 14.060000000000002 L 192.24000000000007 78.06 C 191.36849334172408 81.53781233086713 192.91729145438825 85.1707451070108 196.03000000000006 86.95 L 216.58000000000007 98.69 L 195.95000000000007 240 C 186.04205039215796 240.0236559616159 177.6456536057612 247.2997078044979 176.21290055052646 257.10354601811474 C 174.78014749529171 266.90738423173156 180.743188269011 276.28195377629635 190.23000000000008 279.14 L 168.08000000000007 430.84 C 167.66872092692006 433.6532431871648 168.7801159690308 436.473598413891 171.00000000000006 438.25 L 251.00000000000006 502.25 C 253.92501861278978 504.5832801533281 258.07498138721036 504.5832801533281 261.00000000000006 502.25 L 341.00000000000006 438.25 C 343.21988403096935 436.473598413891 344.33127907308005 433.6532431871648 343.9200000000001 430.84 z M 209.23000000000002 76.06 L 222.25000000000003 24 L 289.75 24 L 302.77 76.06 L 255.99999999999997 102.79 z M 196.00000000000003 256 L 268 256 C 270.20913899932316 256 272 257.79086100067684 272 260 C 272 262.20913899932316 270.20913899932316 264 268 264 L 196 264 C 193.7908610006768 264 192 262.20913899932316 192 260 C 192 257.79086100067684 193.7908610006768 256 196 256 z M 256 485.75 L 184.57999999999998 428.62 L 206.27999999999997 280 L 268 280 C 279.04569499661585 280 288 271.04569499661585 288 260 C 288 248.95430500338412 279.04569499661585 240 268 240 L 212.12 240 L 231.51 107.22 L 252.03 118.95 C 254.49151802302868 120.35003820447193 257.5084819769714 120.35003820447193 259.97 118.95 L 280.49 107.22 L 327.42 428.62 z" stroke-linecap="round" />
</g>
</g>
</g>
</svg>