<?xml version="1.0" encoding="UTF-8" standalone="no" ?>
<!DOCTYPE svg PUBLIC "-//W3C//DTD SVG 1.1//EN" "http://www.w3.org/Graphics/SVG/1.1/DTD/svg11.dtd">
<svg xmlns="http://www.w3.org/2000/svg" xmlns:xlink="http://www.w3.org/1999/xlink" version="1.1" width="1080" height="1080" viewBox="0 0 1080 1080" xml:space="preserve">
<desc>Created with Fabric.js 4.2.0</desc>
<defs>
</defs>
<rect x="0" y="0" width="100%" height="100%" fill="transparent"></rect>
<g transform="matrix(1 0 0 1 540 540)" id="397bbd79-3936-4d2e-9ff5-8bca9b1695d3"  >
<rect style="stroke: none; stroke-width: 1; stroke-dasharray: none; stroke-linecap: butt; stroke-dashoffset: 0; stroke-linejoin: miter; stroke-miterlimit: 4; fill: rgb(255,255,255); fill-rule: nonzero; opacity: 1;" vector-effect="non-scaling-stroke"  x="-540" y="-540" rx="0" ry="0" width="1080" height="1080" />
</g>
<g transform="matrix(1 0 0 1 540 540)" id="3ed92ecb-e198-4a5a-9166-a6181423ab64"  >
</g>
<g transform="matrix(1.19 0 0 1.19 540 540)"  >
<g style="" vector-effect="non-scaling-stroke"   >
		<g transform="matrix(1 0 0 1 4.04 -220.21)"  >
<path style="stroke: none; stroke-width: 1; stroke-dasharray: none; stroke-linecap: butt; stroke-dashoffset: 0; stroke-linejoin: miter; stroke-miterlimit: 4; fill: rgb(69,104,220); fill-rule: nonzero; opacity: 1;" vector-effect="non-scaling-stroke"  transform=" translate(-260.04, -35.79)" d="M 260.041 45.8871 C 265.62 45.8871 270.143 41.3643 270.143 35.7851 C 270.143 30.2059 265.62 25.6831 260.041 25.6831 C 254.462 25.6831 249.939 30.2059 249.939 35.7851 C 249.939 41.3643 254.462 45.8871 260.041 45.8871 Z" stroke-linecap="round" />
</g>
		<g transform="matrix(1 0 0 1 51.01 -220.22)"  >
<path style="stroke: none; stroke-width: 1; stroke-dasharray: none; stroke-linecap: butt; stroke-dashoffset: 0; stroke-linejoin: miter; stroke-miterlimit: 4; fill: rgb(69,104,220); fill-rule: nonzero; opacity: 1;" vector-effect="non-scaling-stroke"  transform=" translate(-307.01, -35.78)" d="M 287.315 43.2849 L 326.711 43.2849 C 330.854 43.2849 334.211 39.9269 334.211 35.7849 C 334.211 31.6429 330.854 28.2849 326.711 28.2849 L 287.315 28.2849 C 283.172 28.2849 279.815 31.6429 279.815 35.7849 C 279.815 39.9269 283.173 43.2849 287.315 43.2849 Z" stroke-linecap="round" />
</g>
		<g transform="matrix(1 0 0 1 -92.94 -50.51)"  >
<path style="stroke: none; stroke-width: 1; stroke-dasharray: none; stroke-linecap: butt; stroke-dashoffset: 0; stroke-linejoin: miter; stroke-miterlimit: 4; fill: rgb(69,104,220); fill-rule: nonzero; opacity: 1;" vector-effect="non-scaling-stroke"  transform=" translate(-163.06, -205.49)" d="M 132.76 147.484 C 128.617 147.484 125.26 150.842 125.26 154.984 L 125.26 235.797 C 125.26 251.072 137.688 263.5 152.964 263.5 L 173.167 263.5 C 188.442 263.5 200.87 251.072 200.87 235.797 L 200.87 154.984 C 200.87 150.842 197.513 147.484 193.37 147.484 C 189.227 147.484 185.87 150.842 185.87 154.984 L 185.87 235.797 C 185.87 242.801 180.172 248.5 173.167 248.5 L 152.964 248.5 C 145.959 248.5 140.26 242.801 140.26 235.797 L 140.26 154.984 C 140.26 150.842 136.902 147.484 132.76 147.484 L 132.76 147.484 Z" stroke-linecap="round" />
</g>
		<g transform="matrix(1 0 0 1 8.08 -50.51)"  >
<path style="stroke: none; stroke-width: 1; stroke-dasharray: none; stroke-linecap: butt; stroke-dashoffset: 0; stroke-linejoin: miter; stroke-miterlimit: 4; fill: rgb(69,104,220); fill-rule: nonzero; opacity: 1;" vector-effect="non-scaling-stroke"  transform=" translate(-264.08, -205.49)" d="M 229.918 262.431 C 231.126 263.156 232.456 263.501 233.77 263.501 C 236.318 263.501 238.802 262.203 240.208 259.859 L 264.081 220.07 L 287.954 259.859 C 289.361 262.203 291.845 263.501 294.392 263.501 C 295.705 263.501 297.036 263.156 298.244 262.431 C 301.796 260.3 302.948 255.693 300.817 252.141 L 272.828 205.492 L 300.817 158.843 C 302.948 155.291 301.796 150.684 298.244 148.553 C 294.692 146.422 290.085 147.574 287.954 151.125 L 264.081 190.914 L 240.208 151.125 C 238.075 147.573 233.47 146.423 229.918 148.553 C 226.366 150.684 225.214 155.291 227.345 158.843 L 255.334 205.492 L 227.345 252.141 C 225.214 255.693 226.366 260.3 229.918 262.431 L 229.918 262.431 Z" stroke-linecap="round" />
</g>
		<g transform="matrix(1 0 0 1 -42.43 146.47)"  >
<path style="stroke: none; stroke-width: 1; stroke-dasharray: none; stroke-linecap: butt; stroke-dashoffset: 0; stroke-linejoin: miter; stroke-miterlimit: 4; fill: rgb(69,104,220); fill-rule: nonzero; opacity: 1;" vector-effect="non-scaling-stroke"  transform=" translate(-213.57, -402.47)" d="M 193.37 374.771 C 189.227 374.771 185.87 378.129 185.87 382.271 L 185.87 422.677 C 185.87 426.819 189.227 430.177 193.37 430.177 L 233.776 430.177 C 237.919 430.177 241.276 426.819 241.276 422.677 L 241.276 382.271 C 241.276 378.129 237.919 374.771 233.776 374.771 L 193.37 374.771 Z M 226.276 415.177 L 200.87 415.177 L 200.87 389.771 L 226.276 389.771 L 226.276 415.177 Z" stroke-linecap="round" />
</g>
		<g transform="matrix(1 0 0 1 32.33 146.47)"  >
<path style="stroke: none; stroke-width: 1; stroke-dasharray: none; stroke-linecap: butt; stroke-dashoffset: 0; stroke-linejoin: miter; stroke-miterlimit: 4; fill: rgb(69,104,220); fill-rule: nonzero; opacity: 1;" vector-effect="non-scaling-stroke"  transform=" translate(-288.33, -402.47)" d="M 308.528 374.771 L 268.122 374.771 C 263.979 374.771 260.622 378.129 260.622 382.271 L 260.622 422.677 C 260.622 426.819 263.979 430.177 268.122 430.177 L 308.528 430.177 C 312.671 430.177 316.028 426.819 316.028 422.677 L 316.028 382.271 C 316.028 378.128 312.671 374.771 308.528 374.771 Z M 301.028 415.177 L 275.622 415.177 L 275.622 389.771 L 301.028 389.771 L 301.028 415.177 Z" stroke-linecap="round" />
</g>
		<g transform="matrix(1 0 0 1 107.08 146.47)"  >
<path style="stroke: none; stroke-width: 1; stroke-dasharray: none; stroke-linecap: butt; stroke-dashoffset: 0; stroke-linejoin: miter; stroke-miterlimit: 4; fill: rgb(69,104,220); fill-rule: nonzero; opacity: 1;" vector-effect="non-scaling-stroke"  transform=" translate(-363.08, -402.47)" d="M 342.874 374.771 C 338.731 374.771 335.374 378.129 335.374 382.271 L 335.374 422.677 C 335.374 426.819 338.731 430.177 342.874 430.177 L 383.28 430.177 C 387.423 430.177 390.78 426.819 390.78 422.677 L 390.78 382.271 C 390.78 378.129 387.423 374.771 383.28 374.771 L 342.874 374.771 Z M 375.78 415.177 L 350.374 415.177 L 350.374 389.771 L 375.78 389.771 L 375.78 415.177 Z" stroke-linecap="round" />
</g>
		<g transform="matrix(1 0 0 1 32.16 74.04)"  >
<path style="stroke: none; stroke-width: 1; stroke-dasharray: none; stroke-linecap: butt; stroke-dashoffset: 0; stroke-linejoin: miter; stroke-miterlimit: 4; fill: rgb(69,104,220); fill-rule: nonzero; opacity: 1;" vector-effect="non-scaling-stroke"  transform=" translate(-288.16, -330.04)" d="M 437.248 474.195 C 437.248 473.435 437.133 472.703 436.923 472.011 L 436.923 155.583 C 436.923 151.441 433.566 148.083 429.423 148.083 C 425.28 148.083 421.923 151.441 421.923 155.583 L 421.923 466.695 L 154.077 466.695 L 154.077 365.667 C 154.077 361.525 150.72 358.167 146.577 358.167 C 142.434 358.167 139.077 361.525 139.077 365.667 L 139.077 504.5 C 139.077 508.642 142.434 512 146.577 512 L 429.423 512 C 433.566 512 436.923 508.642 436.923 504.5 L 436.923 476.379 C 437.133 475.688 437.248 474.955 437.248 474.195 Z M 154.077 497 L 154.077 481.695 L 421.923 481.695 L 421.923 497 L 154.077 497 Z" stroke-linecap="round" />
</g>
		<g transform="matrix(1 0 0 1 -0.16 -83.84)"  >
<path style="stroke: none; stroke-width: 1; stroke-dasharray: none; stroke-linecap: butt; stroke-dashoffset: 0; stroke-linejoin: miter; stroke-miterlimit: 4; fill: rgb(69,104,220); fill-rule: nonzero; opacity: 1;" vector-effect="non-scaling-stroke"  transform=" translate(-255.84, -172.16)" d="M 139.08 330.44 C 139.08 334.582 142.437 337.94 146.58 337.94 C 150.723 337.94 154.08 334.582 154.08 330.44 L 154.08 293.805 L 260.975 293.805 L 309.287 342.117 C 310.723 343.552 312.641 344.314 314.593 344.314 C 315.559 344.314 316.533 344.127 317.461 343.743 C 320.264 342.582 322.091 339.847 322.091 336.814 L 322.091 293.806 L 324.693 293.806 C 339.968 293.806 352.396 281.378 352.396 266.103 L 352.396 144.882 C 352.396 129.606 339.968 117.178 324.693 117.178 L 231.5 117.178 C 227.357 117.178 224 120.536 224 124.678 C 224 128.82 227.357 132.178 231.5 132.178 L 324.691 132.178 C 331.696 132.178 337.394 137.877 337.394 144.882 L 337.394 266.101 C 337.394 273.105 331.696 278.804 324.691 278.804 L 314.59 278.804 C 310.447 278.804 307.09 282.162 307.09 286.304 L 307.09 318.706 L 269.385 281.001 C 267.978 279.594 266.071 278.804 264.081 278.804 L 146.677 278.804 C 146.645 278.804 146.613 278.799 146.58 278.799 C 146.547 278.799 146.516 278.803 146.483 278.804 L 102.455 278.804 C 95.45 278.804 89.752 273.105 89.752 266.101 L 89.752 144.882 C 89.752 137.877 95.45 132.178 102.455 132.178 L 196.583 132.178 C 200.726 132.178 204.083 128.82 204.083 124.678 C 204.083 120.536 200.726 117.178 196.583 117.178 L 154.08 117.178 L 154.08 45.305 L 211.911 45.305 L 219.223 61.391 C 223.707 71.256 233.607 77.63 244.444 77.63 L 331.557 77.63 C 342.394 77.63 352.293 71.255 356.778 61.391 L 364.09 45.305 L 421.921 45.305 L 421.921 120.471 C 421.921 124.613 425.278 127.971 429.421 127.971 C 433.564 127.971 436.921 124.613 436.921 120.471 L 436.921 7.5 C 436.921 3.358 433.564 0 429.421 0 L 146.58 0 C 142.437 0 139.08 3.358 139.08 7.5 L 139.08 117.179 L 102.455 117.179 C 87.18 117.179 74.752 129.607 74.752 144.883 L 74.752 266.102 C 74.752 281.377 87.18 293.805 102.455 293.805 L 139.08 293.805 L 139.08 330.44 Z M 421.92 15 L 421.92 30.305 L 359.26 30.305 C 356.319 30.305 353.65 32.024 352.432 34.701 L 343.121 55.183 C 341.065 59.706 336.526 62.629 331.557 62.629 L 244.444 62.629 C 239.474 62.629 234.935 59.706 232.88 55.183 L 223.569 34.701 C 222.351 32.023 219.682 30.305 216.741 30.305 L 154.081 30.305 L 154.081 15 L 421.92 15 Z" stroke-linecap="round" />
</g>
</g>
</g>
</svg>